<svg width="222" height="73" viewBox="0 0 222 73" fill="none" xmlns="http://www.w3.org/2000/svg">
<g clip-path="url(#clip0_772_727)">
<path d="M160.512 56.3996C163.04 54.0809 163.517 50.4807 161.576 48.3583C159.635 46.2359 156.013 46.395 153.484 48.7137C150.956 51.0324 150.479 54.6327 152.42 56.7551C154.36 58.8775 157.983 58.7183 160.512 56.3996Z" fill="#ED1B24"/>
<path d="M165.19 57.955C162.867 60.9229 159.255 62.9057 155.529 62.9057C149.849 62.9057 146.053 58.2945 147.053 52.6017C148.053 46.909 153.478 42.2977 159.158 42.2977C162.884 42.2977 165.797 44.2806 167.078 47.2443H177.94C177.103 38.5794 170.335 32.2075 160.933 32.2075H160.406L142.373 32.5596L152.289 33.0459L154.579 33.1591L160.473 33.4484L153.876 33.3813C150.427 34.567 147.268 36.4715 144.608 38.9693L140.146 39.1663L143.863 39.4639H144.077L149.665 39.9125H143.637C140.204 43.3822 137.886 47.8016 136.982 52.6017C136.589 54.7602 136.561 56.9693 136.898 59.1371L131.909 59.3551L135.626 59.6527L137.011 59.7617L141.423 60.1139H137.078C137.639 62.7729 138.867 65.2452 140.644 67.2985C142.422 69.3518 144.692 70.9186 147.241 71.8515H150.657L147.693 72.0024L140.996 72.3462L133.307 72.7402L152.143 72.9289H152.306C152.779 72.9624 153.265 72.9792 153.754 72.9792C163.156 72.9792 172.172 66.6031 176.061 57.934L165.19 57.955Z" fill="white"/>
<path d="M43.3441 60.3022C44.07 58.9966 44.6713 57.6253 45.1398 56.2065H34.424C33.7911 57.765 32.795 59.1491 31.5191 60.2435C29.482 61.9678 26.8016 62.8286 23.4781 62.8258H18.0658L19.2295 56.2065H8.60163L7.6347 61.7065L1.25967 61.9915L4.97251 62.2892L7.48401 62.4904L10.7615 62.7503H7.43796L6.02315 70.7864H9.02021L6.00222 71.084L2.1094 71.4655L0.0164795 71.6751H22.1554C25.22 71.7128 28.2696 71.241 31.18 70.2792C33.7685 69.4149 36.1794 68.0884 38.2959 66.3638C40.3459 64.6807 42.0588 62.6239 43.3441 60.3022Z" fill="white"/>
<path d="M52.7731 48.8075H63.3842L66.105 33.3389H59.0686H55.4939H46.0925L50.0272 33.6617L55.36 34.0976L57.8924 34.3072H55.3223L54.5061 38.9478L49.8723 39.1532L53.5894 39.4508L54.4056 39.5137L59.3867 39.912H54.3386L52.7731 48.8075Z" fill="white"/>
<path d="M51.4631 56.2065L50.7431 60.3022L45.4271 60.5369L49.1441 60.8345L50.6301 60.9519L54.9415 61.2957H50.5673L48.8972 70.7864H50.8771L48.8762 70.908L38.4493 71.5452L36.3397 71.6751H48.7423H54.029H59.3534L62.0742 56.2065H51.4631Z" fill="white"/>
<path d="M116.519 57.1288L116.682 56.2065H106.071L105.117 61.6268L100.395 61.8364L104.112 62.1341L105.012 62.2053L109.91 62.5952H104.945L103.497 70.8283H109.956L103.426 71.2475L99.5412 71.4907L98.6622 71.5452L93.4759 57.7366C94.3758 57.313 95.2336 56.8049 96.0377 56.2191H69.1855L66.6154 70.8283H70.5501L66.5275 71.2098L63.7188 71.4739L61.6259 71.6751H66.4647H77.0758L79.2399 59.3883H82.689L86.3182 70.8283H94.334L86.4772 71.3188L83.9239 71.4781L80.7259 71.6751H131.245L132.806 62.8258H115.519L116.519 57.1288Z" fill="white"/>
<path d="M186.867 33.3389H180.827H172.464V33.4101L177.671 33.8503L180.693 34.106L183.054 34.3072H180.656L179.27 42.1882H189.375L188.286 48.3757L180.563 48.7152L184.887 49.059L188.119 49.3189L191.627 49.5997H188.069L186.051 61.0817L181.932 61.262L185.653 61.5596L185.959 61.5848L191.451 62.0207H185.884L184.368 70.6395H188.01L184.322 70.8785L177.533 71.3187L174.335 71.5283L184.188 71.654L184.184 71.675H185.758L190.978 71.742V71.675H194.741L199.931 42.1882H210.007L211.568 33.3389H186.867Z" fill="white"/>
<path d="M133.289 52.5554C133.289 52.5554 125.185 48.6778 121.807 46.1626C121.807 46.1626 122.769 50.0025 124.059 52.589C124.059 52.589 120.777 56.6301 119.848 58.9483C119.848 58.9483 128.638 54.1107 133.289 52.5554Z" fill="white"/>
<path d="M109.953 34.1815L114.926 34.5755L114.938 34.5923H109.878L108.396 43.0141L103.457 43.2321L107.169 43.5297L108.291 43.6177L112.971 43.9908H108.224L107.375 48.8075H117.986L118.074 48.3086L119.154 42.1882H136.182L137.739 33.3389H110.1V33.3473H99.5429L107.27 33.9635L109.953 34.1815Z" fill="white"/>
<path d="M12.49 34.2282L15.4996 34.5803H12.4272L10.9036 43.2368L5.51641 43.4758L9.22924 43.7734L10.7864 43.895L15.035 44.2345H10.7278L9.92409 48.808H20.5352L21.6947 42.2182H27.0986C28.589 42.1788 30.0738 42.4176 31.477 42.9224C32.5872 43.3318 33.5634 44.0396 34.2982 44.9681C35.0121 45.925 35.4638 47.0522 35.6084 48.2379C35.6335 48.4266 35.6544 48.6152 35.6712 48.808H46.4413C46.4876 47.2626 46.3142 45.7185 45.9265 44.222C45.3621 41.9675 44.2243 39.8979 42.6238 38.2148C40.9722 36.5478 38.9496 35.2965 36.7218 34.5635C34.1681 33.7181 31.4916 33.3044 28.8022 33.3395H4.87598L11.6235 34.1317L12.49 34.2282Z" fill="white"/>
<path d="M71.1434 45.0936L76.6855 45.5338H71.0681L70.4904 48.8078H81.1015L82.2736 42.1885H88.2426C88.7726 42.1816 89.297 42.2978 89.7746 42.5281C90.2215 42.7468 90.6124 43.0652 90.9173 43.4587C91.2329 43.8746 91.4517 44.3558 91.5577 44.8673C91.5837 44.9806 91.6033 45.0954 91.6163 45.211L86.8947 45.4206L90.6117 45.7182L91.6498 45.7979L96.4091 46.1794H91.6205C91.6098 46.32 91.5916 46.4599 91.5661 46.5986C91.459 47.2282 91.2422 47.8341 90.9257 48.3886C90.8461 48.5269 90.7582 48.661 90.6703 48.8078H101.637C101.867 48.0901 102.047 47.3576 102.177 46.6153C102.528 44.8301 102.492 42.9904 102.073 41.2202C101.69 39.6607 100.928 38.2205 99.8541 37.0282C98.7327 35.8243 97.3509 34.8937 95.8147 34.3075C94.0306 33.6313 92.1339 33.3026 90.2266 33.3392H85.9487H86.045H68.7533L72.0392 33.7584L73.1191 33.8967L76.5515 34.3453H73.0396L71.2313 44.6032L67.1669 44.7834L70.8881 45.081L71.1434 45.0936Z" fill="white"/>
<path d="M18.729 11.6958C21.1317 11.6958 24.2334 11.5617 24.2334 8.34218C24.2334 5.4371 21.4666 5.03885 19.2104 5.03885H16.2092V11.6832L18.729 11.6958ZM11.994 1.44629H19.9471C24.5139 1.44629 28.6495 3.04764 28.6495 8.28768C28.6495 14.232 24.2167 15.3009 19.2146 15.3009H16.2133V25.0851H12.0275L11.994 1.44629Z" fill="white"/>
<path d="M49.8358 11.461C52.205 11.461 54.9718 11.2598 54.9718 8.19126C54.9718 5.3826 52.3682 5.05143 50.2042 5.05143H46.5667V11.461H49.8358ZM42.3683 1.44629H50.5683C55.1058 1.44629 59.3586 2.9135 59.3586 8.2248C59.3586 11.6287 57.3912 14.1314 53.8919 14.6344L60.1706 25.0851H55.1058L49.6223 15.0746H46.5667V25.0935H42.3808L42.3683 1.44629Z" fill="white"/>
<path d="M86.3457 16.0681L82.7123 6.45157L79.0121 16.0681H86.3457ZM81.0171 1.44629H84.6504L94.8303 25.0851H90.0124L87.8149 19.6858H77.5763L75.4415 25.0935H70.7408L81.0171 1.44629Z" fill="white"/>
<path d="M107.449 1.44189H111.652V11.4608H111.853L121.623 1.44189H127.29L116.252 12.3621L128.023 25.0849H122.121L111.886 13.4646H111.652V25.0849H107.449V1.44189Z" fill="white"/>
<path d="M147.759 11.461C150.129 11.461 152.895 11.2598 152.895 8.19126C152.895 5.3826 150.296 5.05143 148.128 5.05143H144.494V11.461H147.759ZM140.292 1.44629H148.496C153.029 1.44629 157.286 2.9135 157.286 8.2248C157.286 11.6287 155.323 14.1314 151.82 14.6344L158.098 25.0851H153.013L147.571 15.0746H144.503V25.0935H140.317L140.292 1.44629Z" fill="white"/>
<path d="M175.402 1.44189H171.199V25.0807H175.402V1.44189Z" fill="white"/>
<path d="M203.541 16.0681L199.895 6.45157L196.194 16.0681H203.541ZM198.22 1.44629H201.854L212.034 25.0851H207.212L205.01 19.6858H194.775L192.641 25.0935H187.94L198.22 1.44629Z" fill="white"/>
<path d="M211.408 1.01447H209.482V0H214.451V1.01447H212.526V6.29224H211.408V1.01447Z" fill="white"/>
<path d="M215.238 0H216.942L218.621 4.40582L220.316 0H222.003V6.29224H220.935V1.06478H220.919L219.01 6.29224H218.231L216.323 1.06478H216.306V6.29224H215.238V0Z" fill="white"/>
</g>
<defs>
<clipPath id="clip0_772_727">
<rect width="222" height="73" fill="white"/>
</clipPath>
</defs>
</svg>
